<svg width="459" height="61" viewBox="0 0 459 61" fill="none" xmlns="http://www.w3.org/2000/svg">
<path d="M181.572 34.5678C179.853 32.7136 177.999 30.9499 176.032 29.2766C174.064 27.5807 172.233 25.8848 170.514 24.1437C168.796 22.4252 167.371 20.6842 166.263 18.9657C165.155 17.2472 164.59 15.4609 164.59 13.6068C164.59 10.8482 165.472 8.70002 167.236 7.20765C168.999 5.71529 171.849 4.96912 175.76 4.96912C176.371 4.96912 177.004 4.96919 177.66 5.03703C178.315 5.08225 178.949 5.12737 179.559 5.21782C180.17 5.28565 180.78 5.33099 181.413 5.33099V2.34624C180.871 2.34624 180.305 2.30097 179.695 2.23314C179.152 2.1653 178.564 2.0975 177.908 2.05228C177.253 2.00705 176.574 1.98438 175.896 1.98438C171.758 1.98438 168.321 2.93406 165.653 4.81083C162.962 6.68759 161.628 9.62716 161.628 13.6294C161.628 15.7775 162.171 17.7899 163.301 19.6667C164.409 21.5434 165.834 23.3976 167.575 25.1839C169.293 26.9928 171.148 28.734 173.092 30.4298C175.059 32.1257 176.891 33.8216 178.632 35.5627C180.35 37.2812 181.775 39.0675 182.883 40.9216C183.991 42.7532 184.556 44.6751 184.556 46.6876C184.556 50.3733 183.313 53.177 180.803 55.099C178.315 57.021 174.878 57.9708 170.492 57.9708C167.891 57.9708 165.495 57.7899 163.347 57.4055C162.193 57.2472 161.085 57.0663 160 56.8402V59.8249C161.085 60.051 162.239 60.2546 163.46 60.4128C164.522 60.5711 165.653 60.7068 166.851 60.8198C168.05 60.9329 169.248 61.0008 170.469 61.0008C172.617 61.0008 174.72 60.752 176.755 60.2545C178.79 59.7571 180.622 58.9431 182.227 57.7673C183.833 56.6141 185.122 55.1443 186.094 53.3354C187.044 51.5265 187.541 49.3332 187.541 46.7102C187.541 44.4717 186.976 42.3688 185.868 40.379C184.76 38.3892 183.335 36.4671 181.617 34.6129" fill="#002D62"/>
<path d="M199 61.0008H225.557V58.2174H202.06V32.7145H224.37V29.9312H202.06V4.76777H225.557V1.98438H199V61.0008Z" fill="#002D62"/>
<path d="M277.171 56.2167C276.015 56.6766 274.633 57.0905 273.025 57.4354C271.416 57.7804 269.513 57.9643 267.36 57.9643C263.123 57.9643 259.317 57.2515 255.941 55.8486C252.543 54.4458 249.688 52.537 247.332 50.0993C244.975 47.6846 243.185 44.833 241.917 41.5444C240.648 38.2557 240.013 34.7601 240.013 31.0115C240.013 27.263 240.648 23.7443 241.917 20.4557C243.185 17.1671 244.975 14.3155 247.286 11.9008C249.597 9.48606 252.407 7.55428 255.715 6.15145C259.023 4.74861 262.716 4.03573 266.794 4.03573C268.788 4.03573 270.578 4.1737 272.164 4.44967C273.75 4.72564 275.064 5.04758 276.151 5.43854C277.465 5.82949 278.576 6.2894 279.504 6.84134L281.113 4.03573C279.89 3.4838 278.575 2.97778 277.193 2.51783C275.879 2.12688 274.384 1.78201 272.685 1.46004C270.985 1.13808 269.037 1 266.794 1C262.874 1 259.113 1.71295 255.533 3.11578C251.954 4.51862 248.804 6.54237 246.063 9.14107C243.321 11.7628 241.146 14.9134 239.492 18.639C237.838 22.3415 237 26.4581 237 31.0115C237 35.565 237.793 39.7506 239.356 43.4302C240.942 47.1097 243.095 50.2373 245.882 52.859C248.646 55.4807 251.886 57.4814 255.579 58.8843C259.272 60.2871 263.191 61 267.36 61C269.671 61 271.756 60.816 273.591 60.402C275.449 60.0111 277.012 59.5741 278.326 59.1142C279.776 58.5623 281.09 57.9415 282.246 57.2285L280.637 54.4228C279.64 55.1357 278.485 55.7107 277.171 56.1706" fill="#002D62"/>
<path d="M332.338 21.7056C332.338 18.2886 331.679 15.3015 330.339 12.7444C329.022 10.1874 327.205 8.03753 324.911 6.2951C322.617 4.55267 319.914 3.21756 316.78 2.33503C313.669 1.4525 310.285 1 306.605 1H294V60.0164H297.043V42.3205H306.628C309.671 42.3205 312.624 42.0036 315.508 41.3927L326.615 60.0164H330.248L318.574 40.4649C322.776 38.994 326.138 36.7311 328.613 33.6536C331.112 30.5987 332.361 26.6159 332.361 21.7281M323.299 34.9435C319.278 38.021 313.737 39.5371 306.651 39.5371H297.066V3.80597H306.651C313.737 3.80597 319.278 5.36736 323.299 8.46753C327.319 11.5677 329.317 16.0029 329.317 21.7281C329.317 27.4532 327.319 31.8885 323.299 34.9435Z" fill="#002D62"/>
<path d="M344 60.0164H370.557V57.2329H347.04V31.7302H369.392V28.9467H347.04V3.80597H370.557V1H344V60.0164Z" fill="#002D62"/>
<path d="M382 3.80597H399.14V60.0164H402.261V3.80597H419.377V1H382V3.80597Z" fill="#002D62"/>
<path d="M456.824 40.3484C455.717 38.3578 454.293 36.4351 452.554 34.5803C450.837 32.7254 448.984 30.9609 447.041 29.287C445.076 27.5905 443.245 25.8941 441.506 24.1523C439.766 22.4106 438.365 20.6913 437.236 18.9722C436.129 17.253 435.564 15.466 435.564 13.6112C435.564 10.8515 436.445 8.72515 438.207 7.20959C439.969 5.71665 442.816 4.9702 446.725 4.9702C447.335 4.9702 447.967 4.97027 448.623 5.03813C449.278 5.08337 449.91 5.12865 450.52 5.21913C451.13 5.28699 451.74 5.33221 452.373 5.33221V2.34631C451.831 2.34631 451.266 2.30103 450.656 2.23317C450.114 2.1653 449.526 2.09747 448.871 2.05223C448.216 2.00699 447.561 1.98438 446.86 1.98438C442.726 1.98438 439.292 2.93436 436.626 4.81185C433.937 6.68933 432.604 9.63003 432.604 13.6338C432.604 15.7828 433.169 17.7959 434.276 19.696C435.383 21.5735 436.806 23.4284 438.524 25.2154C440.241 27.025 442.093 28.7668 444.059 30.4633C446.024 32.1599 447.854 33.8564 449.572 35.5982C451.289 37.3173 452.712 39.1043 453.842 40.9592C454.949 42.8141 455.514 44.7141 455.514 46.7274C455.514 50.4145 454.271 53.2193 451.786 55.142C449.3 57.0648 445.866 58.0149 441.483 58.0149C438.862 58.0149 436.49 57.8339 434.344 57.4494C433.192 57.291 432.084 57.11 431 56.8612V59.8471C432.084 60.0733 433.214 60.2769 434.457 60.4126C435.519 60.571 436.671 60.7067 437.846 60.8198C439.043 60.9329 440.241 61.0008 441.483 61.0008C443.63 61.0008 445.731 60.7519 447.764 60.2543C449.797 59.7566 451.627 58.9424 453.232 57.7887C454.836 56.6351 456.123 55.1647 457.095 53.3551C458.044 51.5455 458.541 49.3513 458.541 46.7274C458.541 44.4879 457.976 42.3843 456.869 40.3937" fill="#002D62"/>
<path d="M32.77 30.61C31.65 29.04 30.4 27.65 29.05 26.44C27.69 25.22 26.45 24.15 25.33 23.22C24.2 22.29 23.25 21.48 22.47 20.79C21.69 20.09 21.3 19.52 21.3 19.05C21.3 18.53 21.47 18.12 21.82 17.83C22.17 17.54 22.57 17.34 23.03 17.22C23.49 17.11 23.98 17.03 24.5 17C25.02 16.97 25.45 16.96 25.8 16.96C26.43 16.96 27.04 16.99 27.62 17.05C28.2 17.11 28.72 17.17 29.18 17.22C29.76 17.28 30.28 17.34 30.74 17.39V1.13C29.53 0.960005 28.28 0.780016 27.02 0.610016C25.92 0.500016 24.68 0.370001 23.3 0.220001C21.91 0.0800012 20.53 0 19.14 0C16.48 0 13.99 0.359996 11.65 1.09C9.30999 1.82 7.27999 2.87001 5.53999 4.26001C3.80999 5.65001 2.45 7.39001 1.47 9.48001C0.490001 11.57 0 13.97 0 16.7C0 19.13 0.399991 21.29 1.20999 23.18C2.01999 25.06 3.04 26.76 4.28 28.27C5.52 29.78 6.84999 31.11 8.25999 32.27C9.66999 33.43 11 34.49 12.24 35.44C13.48 36.4 14.5 37.27 15.31 38.05C16.12 38.83 16.52 39.6 16.52 40.35C16.52 42.32 15.19 43.31 12.54 43.31C11.04 43.31 9.55 43.22 8.08 43.05C6.61 42.88 5.29 42.65 4.14 42.36C2.75 42.13 1.43 41.81 0.160004 41.4V58.79C1.54 59.2 3.07 59.54 4.75 59.83C6.19 60.12 7.85 60.36 9.73 60.57C11.61 60.77 13.64 60.87 15.83 60.87C19.47 60.87 22.61 60.39 25.27 59.44C27.92 58.48 30.1 57.18 31.81 55.53C33.51 53.88 34.77 51.94 35.58 49.7C36.39 47.47 36.79 45.08 36.79 42.53C36.79 39.98 36.4 37.89 35.62 35.92C34.84 33.95 33.89 32.18 32.76 30.62M27.04 46.92C26.32 48.28 25.35 49.4 24.14 50.27C22.93 51.14 21.55 51.76 20.03 52.14C18.5 52.52 16.93 52.71 15.31 52.71C14.39 52.71 13.48 52.67 12.58 52.58C11.68 52.49 10.83 52.39 10.03 52.27C9.11 52.16 8.23999 52.01 7.42999 51.84V49.58C8.23999 49.75 9.08 49.9 9.94 50.01C11.56 50.3 13.35 50.44 15.31 50.44C18.6 50.44 21.18 49.72 23.06 48.27C24.94 46.82 25.87 44.7 25.87 41.92C25.87 40.41 25.45 38.96 24.61 37.57C23.77 36.18 22.71 34.83 21.41 33.53C20.11 32.23 18.73 30.94 17.25 29.66C15.78 28.39 14.39 27.07 13.09 25.7C11.79 24.34 10.72 22.95 9.89 21.53C9.05 20.11 8.63 18.59 8.63 16.96C8.63 13.95 9.64 11.73 11.66 10.31C13.68 8.89 16.25 8.17999 19.37 8.17999C19.89 8.17999 20.39 8.19 20.88 8.22C21.37 8.25 21.82 8.29001 22.22 8.35001C22.68 8.41001 23.11 8.44 23.52 8.44V10.7C23.06 10.7 22.59 10.67 22.13 10.61C21.67 10.55 21.19 10.51 20.7 10.48C20.21 10.45 19.73 10.44 19.27 10.44C16.33 10.44 14.19 11.01 12.86 12.14C11.53 13.27 10.87 14.88 10.87 16.96C10.87 18.35 11.29 19.7 12.13 21C12.97 22.3 14.03 23.61 15.33 24.91C16.63 26.22 18.01 27.51 19.49 28.78C20.96 30.06 22.35 31.39 23.65 32.78C24.95 34.17 26.02 35.62 26.86 37.13C27.7 38.64 28.12 40.23 28.12 41.91C28.12 43.88 27.76 45.55 27.04 46.91" fill="#002D62"/>
<path d="M74.06 36.9395C74.06 39.0195 73.63 40.5996 72.77 41.6996C71.91 42.7996 70.48 43.3495 68.47 43.3495C66.46 43.3495 65.03 42.7996 64.17 41.6996C63.31 40.5996 62.88 39.0195 62.88 36.9395V0.0195312H44V37.7495C44 41.6695 44.58 45.0796 45.73 47.9796C46.88 50.8896 48.52 53.2895 50.65 55.1895C52.78 57.0895 55.35 58.5095 58.36 59.4595C61.37 60.4095 64.74 60.8795 68.46 60.8795C72.18 60.8795 75.55 60.4095 78.56 59.4595C81.57 58.5095 84.16 57.0895 86.32 55.1895C88.48 53.2895 90.13 50.8896 91.28 47.9796C92.43 45.0696 93.01 41.6595 93.01 37.7495V0.0195312H74.04V36.9395H74.06ZM81.77 37.1195V7.13956H84.16V37.1195C84.16 42.0995 82.8 45.9096 80.08 48.5496C77.36 51.1896 73.49 52.5096 68.47 52.5096C63.45 52.5096 59.59 51.1896 56.9 48.5496C54.21 45.9096 52.87 42.0995 52.87 37.1195V7.13956H55.17V37.1195C55.17 45.8395 59.6 50.1996 68.46 50.1996C77.32 50.1996 81.75 45.8395 81.75 37.1195" fill="#002D62"/>
<path d="M149.18 60.8698V0.00976562H131.08V23.4597L115.15 0.00976562H100V60.8698H118.1V37.5098L133.95 60.8698H149.19H149.18ZM110.3 11.4198V53.5698H108.05V7.30975H110.3L138.88 49.4597V7.30975H141.13V53.5698H138.88L110.3 11.4198Z" fill="#002D62"/>
</svg>
